<svg xmlns="http://www.w3.org/2000/svg" xmlns:xlink="http://www.w3.org/1999/xlink" width="500" zoomAndPan="magnify" viewBox="0 0 375 374.999991" height="500" preserveAspectRatio="xMidYMid meet" version="1.0"><defs><g/></defs><g fill="#ffffff" fill-opacity="1"><g transform="translate(67.992401, 254.317366)"><g><path d="M 35.375 44.3125 L 35.375 -228.40625 L 98.4375 -228.40625 L 98.4375 -207.53125 L 59.234375 -207.53125 L 59.234375 23.4375 L 98.4375 23.4375 L 98.4375 44.3125 Z M 35.375 44.3125 "/></g></g></g><g fill="#ffffff" fill-opacity="1"><g transform="translate(176.660362, 254.317366)"><g/></g></g><g fill="#ffffff" fill-opacity="1"><g transform="translate(199.807447, 254.317366)"><g><path d="M 10.234375 -228.40625 C 31.117188 -228.40625 45.570312 -223.789062 53.59375 -214.5625 C 61.613281 -205.332031 65.625 -190.914062 65.625 -171.3125 L 65.625 -137.21875 C 65.625 -125.570312 67.984375 -117.257812 72.703125 -112.28125 C 77.429688 -107.3125 85.726562 -104.828125 97.59375 -104.828125 L 97.59375 -79.265625 C 85.726562 -79.265625 77.429688 -76.773438 72.703125 -71.796875 C 67.984375 -66.828125 65.625 -58.519531 65.625 -46.875 L 65.625 -12.78125 C 65.625 6.8125 61.613281 21.222656 53.59375 30.453125 C 45.570312 39.691406 31.117188 44.3125 10.234375 44.3125 L 10.234375 23.4375 C 22.585938 23.4375 31.070312 20.523438 35.6875 14.703125 C 40.3125 8.878906 42.625 -0.28125 42.625 -12.78125 L 42.625 -55.40625 C 42.625 -64.0625 44.539062 -71.460938 48.375 -77.609375 C 52.207031 -83.753906 60.234375 -88.035156 72.453125 -90.453125 L 72.453125 -93.640625 C 60.234375 -96.054688 52.207031 -100.335938 48.375 -106.484375 C 44.539062 -112.628906 42.625 -120.035156 42.625 -128.703125 L 42.625 -171.3125 C 42.625 -183.738281 40.3125 -192.878906 35.6875 -198.734375 C 31.070312 -204.597656 22.585938 -207.53125 10.234375 -207.53125 Z M 10.234375 -228.40625 "/></g></g></g></svg>